<?xml version="1.0" encoding="UTF-8"?>
<svg xmlns="http://www.w3.org/2000/svg" xmlns:xlink="http://www.w3.org/1999/xlink" width="24pt" height="24pt" viewBox="0 0 24 24" version="1.1">
<g id="surface5292759">
<path style=" stroke:none;fill-rule:nonzero;fill:rgb(83.137256%,68.627453%,21.568628%);fill-opacity:1;" d="M 18 3 L 6 3 C 4.347656 3 3 4.347656 3 6 L 3 18 C 3 19.652344 4.347656 21 6 21 L 18 21 C 19.652344 21 21 19.652344 21 18 L 21 6 C 21 4.347656 19.652344 3 18 3 Z M 12.28125 10.796875 C 14.855469 11.402344 15.613281 12.949219 15.46875 14.191406 C 15.285156 15.761719 13.765625 16.949219 11.910156 16.992188 L 11.683594 18 L 9.632812 18 L 9.949219 16.589844 C 8.71875 16.089844 7.742188 15.300781 7.589844 15.175781 L 8.878906 13.644531 C 9.328125 14.019531 10.730469 15 11.804688 15 C 12.820312 15 13.207031 14.496094 13.257812 14.058594 C 13.3125 13.570312 12.886719 12.992188 11.820312 12.742188 C 8.785156 12.027344 8.761719 10.136719 8.828125 9.578125 C 8.996094 8.121094 10.460938 6.941406 12.113281 6.890625 L 12.3125 6 L 14.363281 6 L 14.105469 7.15625 C 15.554688 7.585938 16.363281 8.382812 16.40625 8.425781 L 14.988281 9.835938 C 14.949219 9.796875 13.988281 8.878906 12.222656 8.878906 C 11.429688 8.878906 10.992188 9.136719 10.894531 9.558594 C 10.773438 10.085938 11.347656 10.574219 12.28125 10.796875 Z M 12.28125 10.796875 "/>
</g>
</svg>
